<?xml version="1.0" encoding="utf-8"?>
<!-- Svg Vector Icons : http://www.onlinewebfonts.com/icon -->
<!DOCTYPE svg PUBLIC "-//W3C//DTD SVG 1.1//EN" "http://www.w3.org/Graphics/SVG/1.1/DTD/svg11.dtd">
<svg version="1.1" xmlns="http://www.w3.org/2000/svg" xmlns:xlink="http://www.w3.org/1999/xlink" x="0px" y="0px" viewBox="0 0 500 500" enable-background="new 0 0 500 500" fill="rgba(56,239,125,0.5)"xml:space="preserve">
<metadata> Svg Vector Icons : http://www.onlinewebfonts.com/icon </metadata>
<g><g><g><path d="M499.9,137.8C308.6,137.8,153.4,300,153.4,500c0,200,155.1,362.2,346.5,362.2c191.3,0,346.5-162.2,346.5-362.2C846.4,300,691.3,137.8,499.9,137.8z M499.9,813.9c-165.6,0-300.3-140.8-300.3-313.9c0-173.1,134.7-313.9,300.3-313.9c165.6,0,300.3,140.8,300.3,313.9C800.2,673.1,665.5,813.9,499.9,813.9z"/><path d="M79.4,259.4c-38.3,0-69.4,41.4-69.4,92.5c0,42.8,21.9,78.6,51.6,89.1c-0.2,1.2-0.7,2.2-0.7,3.5v277.6c0,10.2,8.3,18.5,18.5,18.5c10.2,0,18.5-8.3,18.5-18.5V444.5c0-1.2-0.5-2.3-0.7-3.5c29.6-10.5,51.6-46.2,51.6-89.1C148.8,300.8,117.8,259.4,79.4,259.4z"/><path d="M979.9,259.4c-5.5,0-9.9,4.4-9.9,9.9v115h-19.8v-115c0-5.5-4.4-9.9-9.9-9.9s-9.9,4.4-9.9,9.9v115h-19.8v-115c0-5.5-4.5-9.9-9.9-9.9c-5.5,0-9.9,4.4-9.9,9.9v115H871v-115c0-5.5-4.5-9.9-9.9-9.9c-5.5,0-9.9,4.4-9.9,9.9v118.9c0,0.9,0.3,1.7,0.6,2.6c2.2,38.3,22.9,59.3,50.8,65.4c-0.1,0.7-0.4,1.4-0.4,2.1v259.1c0,10.3,8.3,18.6,18.5,18.6c10.2,0,18.5-8.3,18.5-18.6V458.3c0-0.7-0.3-1.4-0.5-2.1c27.9-6,48.6-27,50.8-65.4c0.2-0.8,0.6-1.6,0.6-2.6V269.3C989.8,263.8,985.4,259.4,979.9,259.4z"/><path d="M391.6,579.9c-40.8-52.9-47.5-147.1,1.6-194.1C295.1,401.8,341.1,542.8,391.6,579.9z"/><path d="M499.9,210.2c-152.8,0-277.2,130-277.2,289.8c0,159.7,124.4,289.8,277.2,289.8c152.8,0,277.2-130.1,277.2-289.8C777.1,340.2,652.7,210.2,499.9,210.2z M499.9,685.6c0,0-205.4-79.5-190.9-241.4c11.2-125.8,166.1-104.2,190.9-32.5c24.8-71.6,179.7-93.3,190.8,32.5C705.3,606.1,499.9,685.6,499.9,685.6z"/></g></g><g></g><g></g><g></g><g></g><g></g><g></g><g></g><g></g><g></g><g></g><g></g><g></g><g></g><g></g><g></g></g>
</svg>