<svg xmlns="http://www.w3.org/2000/svg" xmlns:xlink="http://www.w3.org/1999/xlink" width="255" height="253" viewBox="0 0 255 253"><defs><clipPath id="b"><rect width="255" height="253"/></clipPath></defs><g id="a" clip-path="url(#b)"><g transform="translate(-87 -341)"><g transform="translate(114 363)" fill="#fff" stroke="#fff" stroke-width="5" opacity="0.796"><circle cx="100" cy="100" r="100" stroke="none"/><circle cx="100" cy="100" r="97.5" fill="none"/></g><g transform="translate(139 388)" fill="#fff" stroke="#fff" stroke-width="5"><circle cx="75" cy="75" r="75" stroke="none"/><circle cx="75" cy="75" r="72.5" fill="none"/></g><g transform="translate(125.388 396.278)"><path d="M20.079-.207C24.288,0,27.738.828,27.738,3.864c0,2.622-2.9,5.313-9.453,5.313-5.727,0-9.039-2.691-9.039-5.106,0-1.035,1.311-3.243,3.312-4.623ZM16.767-28.7c3.864,0,5.52,2.553,5.52,5.8,0,3.381-2.07,5.382-5.52,5.382-3.657,0-5.589-2.346-5.589-5.52C11.178-26.565,13.317-28.7,16.767-28.7ZM14.835-7.521a3.881,3.881,0,0,1-.9-2.139,4.266,4.266,0,0,1,.207-2.07,18.581,18.581,0,0,0,2.76.207c7.452,0,13.317-3.726,13.317-11.109A8.937,8.937,0,0,0,28.7-27.876a48.909,48.909,0,0,0,5.313.345c.345,0,.414-.138.414-.414V-33.6c0-.276-.069-.414-.414-.414H24.426a7.693,7.693,0,0,1-1.587-.207,34.757,34.757,0,0,0-6.072-.483c-8.694,0-13.731,5.175-13.731,11.8A10.119,10.119,0,0,0,7.8-13.938,8.621,8.621,0,0,0,6.555-9.453,8.543,8.543,0,0,0,8-4.278C3.45-.345,1.587,2.484,1.587,4.692c0,5.037,5.037,10.626,16.146,10.626C28.5,15.318,35.4,9.66,35.4,2.622c0-5.658-4.071-9.384-13.524-9.867Zm53.2-26.013c0-.345-.069-.483-.483-.483H60.306c-.414,0-.552.138-.552.483v24.5a8.75,8.75,0,0,1-6.279,2.484c-4.14,0-6-2.622-6-6.9V-33.534c0-.345-.069-.483-.483-.483H39.744c-.414,0-.552.069-.552.483v21.045C39.192-2.829,44.229.69,50.784.69a13.635,13.635,0,0,0,9.591-3.519,14.965,14.965,0,0,0,.483,2.415c.069.276.207.414.69.414H67.9c.414,0,.621-.138.552-.483a61.258,61.258,0,0,1-.414-7.107ZM96.6-26.013c.414.138.621-.069.621-.414V-32.5a.84.84,0,0,0-.414-.828c-1.656-.828-4.692-1.38-8.694-1.38-8.625,0-12.9,4.9-12.9,10.143,0,4.968,2.691,8.073,10.212,10.833,4.278,1.725,5.589,2.829,5.589,4.554,0,1.794-1.725,3.036-5.313,3.036A18.78,18.78,0,0,1,75.831-8.9a.358.358,0,0,0-.552.345V-2c0,.414.138.552.483.759C77.832-.069,81.42.69,85.491.69c8.487,0,13.593-4.071,13.593-10.557,0-4.9-2.691-8-10.557-10.9-4.416-1.725-5.451-2.76-5.451-4.278,0-1.449,1.242-2.967,4.9-2.967A19.625,19.625,0,0,1,96.6-26.013ZM121.923-6.072c0-.414-.207-.483-.414-.414a11.694,11.694,0,0,1-2.622.276c-2.967,0-3.933-1.449-3.933-4.485V-27.048h6.762c.345,0,.483-.138.483-.483v-6c0-.345-.138-.483-.483-.483h-6.693c0-3.381.138-7.452.345-9.729,0-.345-.138-.414-.483-.345l-6.969.966a.663.663,0,0,0-.552.621,72.827,72.827,0,0,0-.69,8.487h-4.347c-.414,0-.552.138-.552.552v5.8c0,.414.138.552.483.621h4.347V-8.9c0,6.831,3.381,9.591,9.039,9.591a15.861,15.861,0,0,0,5.865-.966c.345-.138.414-.414.414-.828Zm20.286-28.635c-10.35,0-16.767,7.935-16.767,17.733,0,8.763,5.106,17.664,16.629,17.664,9.729,0,16.56-7.176,16.56-17.871C158.631-26.634,152.835-34.707,142.209-34.707Zm-.414,6.969c5.865,0,8.349,5.037,8.349,10.764,0,7.107-3.657,10.626-7.935,10.626-5.244,0-8.349-4.416-8.349-10.764C133.86-23.667,137.172-27.738,141.795-27.738Z" transform="translate(9.742 94.037) rotate(-8)" fill="#13e27a"/><path d="M9.09-1.818c.018-.09-.018-.144-.126-.144H3.51v-3.1H8.19c.072,0,.126-.018.126-.108v-1.71C8.316-6.984,8.28-7,8.19-7H3.51V-9.864H8.658c.108,0,.144-.072.126-.162l-.2-1.674c-.018-.108-.054-.126-.162-.126H1.476c-.108,0-.144.054-.144.144V-.144c0,.09.036.144.162.144H8.658c.108,0,.144-.018.162-.144Zm6.732-4.968c.108.036.162-.018.162-.108V-8.478a.219.219,0,0,0-.108-.216,5.548,5.548,0,0,0-2.268-.36c-2.25,0-3.366,1.278-3.366,2.646,0,1.3.7,2.106,2.664,2.826,1.116.45,1.458.738,1.458,1.188,0,.468-.45.792-1.386.792a4.9,4.9,0,0,1-2.574-.72.093.093,0,0,0-.144.09v1.71c0,.108.036.144.126.2a5.537,5.537,0,0,0,2.538.5c2.214,0,3.546-1.062,3.546-2.754,0-1.278-.7-2.088-2.754-2.844-1.152-.45-1.422-.72-1.422-1.116,0-.378.324-.774,1.278-.774A5.12,5.12,0,0,1,15.822-6.786Zm7.452,0c.108.036.162-.018.162-.108V-8.478a.219.219,0,0,0-.108-.216,5.548,5.548,0,0,0-2.268-.36c-2.25,0-3.366,1.278-3.366,2.646,0,1.3.7,2.106,2.664,2.826,1.116.45,1.458.738,1.458,1.188,0,.468-.45.792-1.386.792a4.9,4.9,0,0,1-2.574-.72.093.093,0,0,0-.144.09v1.71c0,.108.036.144.126.2a5.537,5.537,0,0,0,2.538.5c2.214,0,3.546-1.062,3.546-2.754,0-1.278-.7-2.088-2.754-2.844-1.152-.45-1.422-.72-1.422-1.116,0-.378.324-.774,1.278-.774A5.12,5.12,0,0,1,23.274-6.786Zm7.65,2.844a13.711,13.711,0,0,0,1.854-.072.155.155,0,0,0,.144-.126,5.448,5.448,0,0,0,.072-1.116,3.578,3.578,0,0,0-3.69-3.8c-2.718,0-4.23,2.214-4.23,4.716,0,2.214,1.17,4.518,4.446,4.518a5.977,5.977,0,0,0,2.7-.522.191.191,0,0,0,.108-.2V-2.034c0-.09-.054-.108-.108-.072a5.672,5.672,0,0,1-2.232.432c-1.836,0-2.664-1.008-2.718-2.268ZM27.27-5.49a1.966,1.966,0,0,1,1.944-1.836,1.665,1.665,0,0,1,1.728,1.674v.144a8.822,8.822,0,0,1-.99.018Zm7.4,5.346c0,.09.036.144.144.144H36.7a.132.132,0,0,0,.144-.144V-6.426a2.3,2.3,0,0,1,1.746-.738c1.044,0,1.548.684,1.548,1.872v5.13A.143.143,0,0,0,40.3,0h1.872c.09,0,.144-.036.144-.162V-5.49c0-2.88-1.656-3.564-3.006-3.564a3.968,3.968,0,0,0-2.61.99,3.919,3.919,0,0,0-.126-.684c-.036-.09-.09-.126-.216-.126H34.722c-.108,0-.126.036-.126.126.036.36.072,1.332.072,1.944ZM50.742,0c.108,0,.144-.036.144-.144V-6.5a2.533,2.533,0,0,1,1.71-.666c.972,0,1.512.576,1.512,1.764V-.162c0,.126.054.162.162.162h1.872c.108,0,.126-.054.126-.144V-5.382a8.236,8.236,0,0,0-.054-1.062,2.55,2.55,0,0,1,1.764-.738c1.1,0,1.512.81,1.512,1.836V-.162c0,.108.036.162.162.162h1.854c.09,0,.162-.036.162-.144v-5.4c0-2.718-1.548-3.51-3.042-3.51a4.436,4.436,0,0,0-2.952,1.188,2.522,2.522,0,0,0-2.322-1.188,3.842,3.842,0,0,0-2.628,1.008,3.051,3.051,0,0,0-.108-.72.171.171,0,0,0-.18-.108H48.78c-.108,0-.162.036-.144.126.036.342.072,1.08.072,1.782v6.8c0,.108.036.162.144.162ZM63.936-.162c0,.108.054.162.18.162H65.97c.126,0,.162-.036.162-.144v-8.6c0-.108-.036-.126-.144-.126H64.08c-.09,0-.144.036-.144.126Zm1.1-9.918a1.172,1.172,0,0,0,1.242-1.242,1.157,1.157,0,0,0-1.224-1.242,1.191,1.191,0,0,0-1.242,1.242A1.167,1.167,0,0,0,65.034-10.08Zm7.74,8.5c0-.108-.054-.126-.108-.108a3.051,3.051,0,0,1-.684.072c-.774,0-1.026-.378-1.026-1.17V-7.056H72.72c.09,0,.126-.036.126-.126V-8.748c0-.09-.036-.126-.126-.126H70.974c0-.882.036-1.944.09-2.538,0-.09-.036-.108-.126-.09l-1.818.252a.173.173,0,0,0-.144.162,19,19,0,0,0-.18,2.214H67.662c-.108,0-.144.036-.144.144v1.512c0,.108.036.144.126.162h1.134v4.734c0,1.782.882,2.5,2.358,2.5a4.138,4.138,0,0,0,1.53-.252c.09-.036.108-.108.108-.216Zm5.8,1.458c0,.09.054.126.144.126H80.6c.108,0,.144-.054.144-.144v-3.69h1.134c2.718,0,4.932-1.242,4.932-4.1,0-1.98-1.3-3.924-4.788-3.924-1.314,0-2.646.036-3.33.054-.09,0-.126.054-.126.144Zm2.178-9.81c.2-.018.7-.036,1.332-.036,1.656,0,2.592.774,2.592,2.088,0,1.638-1.278,2.142-2.79,2.142-.594,0-.828,0-1.134-.018Zm7.83,7.794c0,1.89.936,2.322,2.088,2.322A2.624,2.624,0,0,0,91.692.036c.09-.054.108-.072.108-.2v-1.35c0-.09-.018-.126-.072-.108a2.3,2.3,0,0,1-.342.018c-.432,0-.63-.18-.63-.738V-12.672c0-.09-.054-.144-.162-.144H88.74c-.108,0-.162.054-.162.144Zm9.4.4A3.291,3.291,0,0,1,96.7-1.53c-1.3,0-1.764-.576-1.764-1.242,0-.774.63-1.242,2.052-1.242a7.405,7.405,0,0,1,.99.054ZM100.08-5.49A3.267,3.267,0,0,0,96.5-9.054a6.688,6.688,0,0,0-2.736.54.171.171,0,0,0-.108.18v1.566a.105.105,0,0,0,.144.108,5.354,5.354,0,0,1,2.358-.5c1.584,0,1.818.936,1.818,1.35V-5.6c-.162-.018-.576-.036-1.116-.036-2.34,0-4.05.954-4.05,2.862C92.808-.738,94.374.18,96.336.18a8.755,8.755,0,0,0,3.744-.81c.036-.018.036-.036.036-.072-.036-.378-.036-.738-.036-1.134Zm2.268,5.346c0,.09.036.144.144.144h1.89a.132.132,0,0,0,.144-.144V-6.426a2.3,2.3,0,0,1,1.746-.738c1.044,0,1.548.684,1.548,1.872v5.13a.143.143,0,0,0,.162.162h1.872c.09,0,.144-.036.144-.162V-5.49c0-2.88-1.656-3.564-3.006-3.564a3.968,3.968,0,0,0-2.61.99,3.919,3.919,0,0,0-.126-.684c-.036-.09-.09-.126-.216-.126H102.4c-.108,0-.126.036-.126.126.036.36.072,1.332.072,1.944ZM113.076.18a1.252,1.252,0,0,0,1.332-1.35,1.271,1.271,0,0,0-1.332-1.314,1.257,1.257,0,0,0-1.314,1.314A1.248,1.248,0,0,0,113.076.18Z" transform="translate(52.591 109.559) rotate(-8)" fill="#004c44"/></g><path d="M44.962-29.535q0,5.28-5.445,5.28H26.648v9.735a21.636,21.636,0,0,0,.907,4.95,3.412,3.412,0,0,1-2.722,1.815q-5.693,0-5.693-5.115V-24.255H3.3A7.54,7.54,0,0,1,2.063-27.72a4.147,4.147,0,0,1,1.155-2.846,3.479,3.479,0,0,1,2.64-1.279,41.909,41.909,0,0,1,4.373.33,41.909,41.909,0,0,0,4.372.33H19.14v-15.1a8.524,8.524,0,0,1,3.712-1.155,6.74,6.74,0,0,1,3.259,1.073q1.856,1.073,1.856,2.31a18.656,18.656,0,0,1-.66,4.084,18.656,18.656,0,0,0-.66,4.084v4.7H37.7a25.9,25.9,0,0,0,5.28-.825Q44.962-30.937,44.962-29.535Z" transform="translate(94.122 397.603) rotate(-8)" fill="#fff"/><path d="M44.962-29.535q0,5.28-5.445,5.28H26.648v9.735a21.636,21.636,0,0,0,.907,4.95,3.412,3.412,0,0,1-2.722,1.815q-5.693,0-5.693-5.115V-24.255H3.3A7.54,7.54,0,0,1,2.063-27.72a4.147,4.147,0,0,1,1.155-2.846,3.479,3.479,0,0,1,2.64-1.279,41.909,41.909,0,0,1,4.373.33,41.909,41.909,0,0,0,4.372.33H19.14v-15.1a8.524,8.524,0,0,1,3.712-1.155,6.74,6.74,0,0,1,3.259,1.073q1.856,1.073,1.856,2.31a18.656,18.656,0,0,1-.66,4.084,18.656,18.656,0,0,0-.66,4.084v4.7H37.7a25.9,25.9,0,0,0,5.28-.825Q44.962-30.937,44.962-29.535Z" transform="translate(294.122 597.603) rotate(-8)" fill="#fff"/></g></g></svg>