<svg xmlns="http://www.w3.org/2000/svg" width="107.511" height="52.979" viewBox="0 0 107.511 52.979">
  <g id="Gruppe_2" data-name="Gruppe 2" transform="translate(0 0)">
    <path id="Pfad_1" data-name="Pfad 1" d="M12.138,28.821c2.763.136,5.027.679,5.027,2.672,0,1.721-1.9,3.487-6.2,3.487-3.759,0-5.933-1.766-5.933-3.352A4.971,4.971,0,0,1,7.2,28.595ZM9.964,10.116c2.536,0,3.623,1.676,3.623,3.8a3.287,3.287,0,0,1-3.623,3.533A3.388,3.388,0,0,1,6.3,13.83,3.415,3.415,0,0,1,9.964,10.116ZM8.7,24.02a2.548,2.548,0,0,1-.589-1.4,2.8,2.8,0,0,1,.136-1.359,12.2,12.2,0,0,0,1.812.136c4.892,0,8.741-2.446,8.741-7.292a5.866,5.866,0,0,0-1-3.442,32.1,32.1,0,0,0,3.487.226c.226,0,.272-.091.272-.272V6.9c0-.181-.045-.272-.272-.272h-6.3a5.05,5.05,0,0,1-1.042-.136,22.815,22.815,0,0,0-3.986-.317c-5.707,0-9.013,3.4-9.013,7.745a6.642,6.642,0,0,0,3.125,5.888,5.659,5.659,0,0,0-.815,2.944,5.608,5.608,0,0,0,.951,3.4C1.223,28.731,0,30.588,0,32.037c0,3.306,3.306,6.975,10.6,6.975,7.066,0,11.595-3.714,11.595-8.334,0-3.714-2.672-6.16-8.877-6.477ZM43.616,6.945c0-.226-.045-.317-.317-.317H38.543c-.272,0-.362.091-.362.317V23.024a5.743,5.743,0,0,1-4.122,1.631c-2.718,0-3.94-1.721-3.94-4.529V6.945c0-.226-.045-.317-.317-.317H25.046c-.272,0-.362.045-.362.317V20.759c0,6.341,3.306,8.651,7.609,8.651a8.95,8.95,0,0,0,6.3-2.31,9.823,9.823,0,0,0,.317,1.585c.045.181.136.272.453.272h4.167c.272,0,.408-.091.362-.317a40.209,40.209,0,0,1-.272-4.665Zm18.751,4.937c.272.091.408-.045.408-.272V7.625a.552.552,0,0,0-.272-.544A13.961,13.961,0,0,0,56.8,6.175c-5.661,0-8.47,3.216-8.47,6.658,0,3.261,1.766,5.3,6.7,7.111C57.838,21.077,58.7,21.8,58.7,22.933c0,1.178-1.132,1.993-3.487,1.993a12.327,12.327,0,0,1-6.477-1.812.235.235,0,0,0-.362.226v4.3c0,.272.091.362.317.5a13.932,13.932,0,0,0,6.386,1.268c5.571,0,8.923-2.672,8.923-6.93,0-3.216-1.766-5.254-6.93-7.156-2.9-1.132-3.578-1.812-3.578-2.808,0-.951.815-1.948,3.216-1.948A12.882,12.882,0,0,1,62.367,11.882ZM78.989,24.972c0-.272-.136-.317-.272-.272A7.676,7.676,0,0,1,77,24.881c-1.948,0-2.582-.951-2.582-2.944V11.2h4.439c.226,0,.317-.091.317-.317V6.945c0-.226-.091-.317-.317-.317H74.46c0-2.219.091-4.892.226-6.386,0-.226-.091-.272-.317-.226L69.795.65a.435.435,0,0,0-.362.408,47.806,47.806,0,0,0-.453,5.571H66.126c-.272,0-.362.091-.362.362v3.8c0,.272.091.362.317.408h2.853V23.115c0,4.484,2.219,6.3,5.933,6.3a10.411,10.411,0,0,0,3.85-.634c.226-.091.272-.272.272-.544ZM92.3,6.175c-6.794,0-11.006,5.209-11.006,11.64,0,5.752,3.352,11.595,10.915,11.595,6.386,0,10.87-4.71,10.87-11.731C103.084,11.475,99.28,6.175,92.3,6.175Zm-.272,4.574c3.85,0,5.48,3.306,5.48,7.066,0,4.665-2.4,6.975-5.209,6.975-3.442,0-5.48-2.9-5.48-7.066C86.825,13.422,89,10.75,92.033,10.75Z" transform="translate(0 14.347) rotate(-8)" fill="#13e27a"/>
    <path id="Pfad_2" data-name="Pfad 2" d="M4.47,5.546c.01-.045-.01-.073-.073-.073H1.255V3.912h2.7c.041,0,.073-.009.073-.054V3c0-.054-.021-.064-.073-.064h-2.7V1.489H4.221c.062,0,.083-.036.073-.082L4.179.563C4.169.508,4.148.5,4.086.5h-4C.021.5,0,.526,0,.572V6.39c0,.045.021.073.093.073H4.221c.062,0,.083-.009.093-.073ZM8.348,3.041c.062.018.093-.009.093-.054v-.8a.107.107,0,0,0-.062-.109A3.607,3.607,0,0,0,7.073,1.9c-1.3,0-1.939.644-1.939,1.334,0,.653.4,1.062,1.535,1.425.643.227.84.372.84.6s-.259.4-.8.4a3.132,3.132,0,0,1-1.483-.363c-.041-.018-.083,0-.083.045V6.2c0,.054.021.073.073.1a3.58,3.58,0,0,0,1.462.254c1.276,0,2.043-.536,2.043-1.389,0-.644-.4-1.053-1.587-1.434-.664-.227-.819-.363-.819-.563s.187-.39.736-.39A3.3,3.3,0,0,1,8.348,3.041Zm4.293,0c.062.018.093-.009.093-.054v-.8a.107.107,0,0,0-.062-.109A3.607,3.607,0,0,0,11.366,1.9c-1.3,0-1.939.644-1.939,1.334,0,.653.4,1.062,1.535,1.425.643.227.84.372.84.6s-.259.4-.8.4A3.132,3.132,0,0,1,9.52,5.292c-.041-.018-.083,0-.083.045V6.2c0,.054.021.073.073.1a3.58,3.58,0,0,0,1.462.254c1.276,0,2.043-.536,2.043-1.389,0-.644-.4-1.053-1.587-1.434-.664-.227-.819-.363-.819-.563s.187-.39.736-.39A3.3,3.3,0,0,1,12.641,3.041Zm4.407,1.434a9.017,9.017,0,0,0,1.068-.036c.052-.009.073-.027.083-.064a2.412,2.412,0,0,0,.041-.563A1.925,1.925,0,0,0,16.115,1.9a2.306,2.306,0,0,0-2.437,2.378A2.241,2.241,0,0,0,16.24,6.553,3.868,3.868,0,0,0,17.8,6.29a.1.1,0,0,0,.062-.1V5.437c0-.045-.031-.054-.062-.036a3.677,3.677,0,0,1-1.286.218c-1.058,0-1.535-.508-1.566-1.144Zm-2.105-.781a1.076,1.076,0,0,1,1.12-.926.9.9,0,0,1,1,.844v.073c-.041.009-.176.009-.57.009Zm4.262,2.7c0,.045.021.073.083.073h1.089c.052,0,.083-.027.083-.073V3.222a1.424,1.424,0,0,1,1.006-.372c.6,0,.892.345.892.944V6.381q0,.082.093.082H23.53c.052,0,.083-.018.083-.082V3.694a1.6,1.6,0,0,0-1.732-1.8,2.483,2.483,0,0,0-1.5.5,1.758,1.758,0,0,0-.073-.345c-.021-.045-.052-.064-.124-.064h-.944c-.062,0-.073.018-.073.064.021.182.041.672.041.98Zm9.261.073c.062,0,.083-.018.083-.073v-3.2a1.582,1.582,0,0,1,.985-.336.784.784,0,0,1,.871.889V6.381c0,.064.031.082.093.082h1.079c.062,0,.073-.027.073-.073V3.749a3.64,3.64,0,0,0-.031-.536,1.579,1.579,0,0,1,1.016-.372.813.813,0,0,1,.871.926V6.381c0,.054.021.082.093.082h1.068c.052,0,.093-.018.093-.073V3.667A1.6,1.6,0,0,0,33.009,1.9a2.758,2.758,0,0,0-1.7.6,1.519,1.519,0,0,0-1.338-.6,2.4,2.4,0,0,0-1.514.508,1.363,1.363,0,0,0-.062-.363.1.1,0,0,0-.1-.054h-.954c-.062,0-.093.018-.083.064.021.172.041.545.041.9V6.381c0,.054.021.082.083.082Zm7.6-.082c0,.054.031.082.1.082H37.24c.073,0,.093-.018.093-.073V2.051c0-.054-.021-.064-.083-.064h-1.1c-.052,0-.083.018-.083.064Zm.633-5a.636.636,0,0,0,.716-.626.627.627,0,0,0-.705-.626A.648.648,0,0,0,36,.753.633.633,0,0,0,36.7,1.38ZM41.16,5.664c0-.054-.031-.064-.062-.054a2,2,0,0,1-.394.036c-.446,0-.591-.191-.591-.59V2.9h1.016c.052,0,.073-.018.073-.064v-.79c0-.045-.021-.064-.073-.064H40.123c0-.445.021-.98.052-1.28,0-.045-.021-.054-.073-.045L39.054.79a.092.092,0,0,0-.083.082,8.412,8.412,0,0,0-.1,1.116h-.653c-.062,0-.083.018-.083.073v.762c0,.054.021.073.073.082h.653V5.292c0,.9.508,1.262,1.359,1.262a2.692,2.692,0,0,0,.881-.127c.052-.018.062-.054.062-.109ZM44.5,6.4c0,.045.031.064.083.064h1.089c.062,0,.083-.027.083-.073V4.529h.653c1.566,0,2.841-.626,2.841-2.069,0-1-.747-1.979-2.758-1.979-.757,0-1.524.018-1.919.027A.064.064,0,0,0,44.5.581Zm1.255-4.947c.114-.009.4-.018.767-.018.954,0,1.493.39,1.493,1.053,0,.826-.736,1.08-1.607,1.08-.342,0-.477,0-.653-.009Zm4.511,3.93c0,.953.539,1.171,1.2,1.171a1.71,1.71,0,0,0,.591-.073c.052-.027.062-.036.062-.1V5.7c0-.045-.01-.064-.041-.054a1.509,1.509,0,0,1-.2.009c-.249,0-.363-.091-.363-.372V.073c0-.045-.031-.073-.093-.073H50.358c-.062,0-.093.027-.093.073Zm5.413.2a2.14,2.14,0,0,1-.736.109c-.747,0-1.016-.29-1.016-.626,0-.39.363-.626,1.182-.626a4.868,4.868,0,0,1,.57.027Zm1.213-1.888c0-1.007-.622-1.8-2.064-1.8a4.332,4.332,0,0,0-1.576.272c-.052.027-.062.045-.062.091v.79a.06.06,0,0,0,.083.054,3.459,3.459,0,0,1,1.358-.254c.913,0,1.047.472,1.047.681V3.64c-.093-.009-.332-.018-.643-.018-1.348,0-2.333.481-2.333,1.443,0,1.026.9,1.489,2.033,1.489a5.662,5.662,0,0,0,2.157-.408c.021-.009.021-.018.021-.036a5.183,5.183,0,0,1-.021-.572ZM58.2,6.39c0,.045.021.073.083.073H59.37c.052,0,.083-.027.083-.073V3.222a1.424,1.424,0,0,1,1.006-.372c.6,0,.892.345.892.944V6.381q0,.082.093.082h1.078c.052,0,.083-.018.083-.082V3.694a1.6,1.6,0,0,0-1.732-1.8,2.483,2.483,0,0,0-1.5.5,1.758,1.758,0,0,0-.073-.345c-.021-.045-.052-.064-.124-.064h-.944c-.062,0-.073.018-.073.064.021.182.041.672.041.98Z" transform="translate(30.142 43.355) rotate(-8)" fill="#004c44"/>
  </g>
</svg>
